<svg xmlns="http://www.w3.org/2000/svg" viewBox="0 10.90999984741211 141.2100067138672 40.36000061035156" data-asc="1.0087890625"><g fill="#000000"><g fill="#000000" transform="translate(0, 0)"><path d="M10.28 10.91L10.28 42.53L16.53 42.53L16.53 50.44L0 50.44L0 10.91L10.28 10.91ZM42.38 10.91L42.38 37.33Q42.38 41.82 42.09 43.64Q41.80 45.46 40.36 47.38Q38.92 49.29 36.56 50.28Q34.20 51.27 31.01 51.27Q27.47 51.27 24.76 50.10Q22.05 48.93 20.70 47.05Q19.36 45.17 19.12 43.08Q18.87 40.99 18.87 34.30L18.87 10.91L29.15 10.91L29.15 40.55Q29.15 43.14 29.43 43.86Q29.71 44.58 30.57 44.58Q31.54 44.58 31.82 43.79Q32.10 42.99 32.10 40.04L32.10 10.91L42.38 10.91ZM78.08 10.91L78.08 50.44L69.09 50.44L69.09 23.75L65.50 50.44L59.13 50.44L55.35 24.37L55.35 50.44L46.36 50.44L46.36 10.91L59.67 10.91Q60.25 14.48 60.91 19.31L62.33 29.37L64.67 10.91L78.08 10.91ZM88.48 42.38L88.48 50.44L81.03 50.44L81.03 42.38L88.48 42.38ZM115.92 10.91L110.03 28.76L116.48 50.44L105.86 50.44L101.71 33.50L101.71 50.44L91.43 50.44L91.43 10.91L101.71 10.91L101.71 26.27L106.27 10.91L115.92 10.91ZM118.26 10.91L125.54 10.91Q132.81 10.91 135.39 11.47Q137.96 12.04 139.59 14.34Q141.21 16.65 141.21 21.70Q141.21 26.32 140.06 27.91Q138.92 29.49 135.55 29.81Q138.60 30.57 139.65 31.84Q140.70 33.11 140.95 34.17Q141.21 35.23 141.21 40.01L141.21 50.44L131.67 50.44L131.67 37.30Q131.67 34.13 131.16 33.37Q130.66 32.62 128.54 32.62L128.54 50.44L118.26 50.44L118.26 10.91M128.54 17.68L128.54 26.46Q130.27 26.46 130.97 25.99Q131.67 25.51 131.67 22.90L131.67 20.73Q131.67 18.85 130.99 18.26Q130.32 17.68 128.54 17.68Z"/></g></g></svg>