<svg xmlns="http://www.w3.org/2000/svg" viewBox="0 10.90999984741211 78.08000183105469 40.36000061035156" data-asc="1.0087890625"><g fill="#000000"><g fill="#000000" transform="translate(0, 0)"><path d="M10.28 10.91L10.28 42.53L16.53 42.53L16.53 50.44L0 50.44L0 10.91L10.28 10.91ZM42.38 10.91L42.38 37.33Q42.38 41.82 42.09 43.64Q41.80 45.46 40.36 47.38Q38.92 49.29 36.56 50.28Q34.20 51.27 31.01 51.27Q27.47 51.27 24.76 50.10Q22.05 48.93 20.70 47.05Q19.36 45.17 19.12 43.08Q18.87 40.99 18.87 34.30L18.87 10.91L29.15 10.91L29.15 40.55Q29.15 43.14 29.43 43.86Q29.71 44.58 30.57 44.58Q31.54 44.58 31.82 43.79Q32.10 42.99 32.10 40.04L32.10 10.91L42.38 10.91ZM78.08 10.91L78.08 50.44L69.09 50.44L69.09 23.75L65.50 50.44L59.13 50.44L55.35 24.37L55.35 50.44L46.36 50.44L46.36 10.91L59.67 10.91Q60.25 14.48 60.91 19.31L62.33 29.37L64.67 10.91L78.08 10.91Z"/></g></g></svg>